<?xml version="1.0" encoding="iso-8859-1"?>
<!-- Generator: Adobe Illustrator 19.0.0, SVG Export Plug-In . SVG Version: 6.00 Build 0)  -->
<svg version="1.1" id="Capa_1" xmlns="http://www.w3.org/2000/svg" xmlns:xlink="http://schemas.android.com/apk/res/android" x="0px" y="0px"
	 viewBox="0 0 367.805 367.805" style="enable-background:new 0 0 367.805 367.805;" xml:space="preserve">
<g>
	<path style="fill:#8776de" d="M24.32,20.141a2.457,2.457 0,0 1,-0.551 -0.062v6.46a1.333,1.333 0,0 0,0.474 0.1,1.35 1.35,0 0,0 1.35,-1.35v-5.522a2.226,2.226 0,0 1,-1.273 0.379Z"/>
    <path style="fill:#8776de" d="M32.279,15.327l-2.265,-6.964a2.246,2.246 0,0 0,-2.14 -1.554h-3.5a2.225,2.225 0,0 0,-1.92 1.123,3.336 3.336,0 0,1 1.914,2.054l2.265,6.963a1.952,1.952 0,0 1,0.024 1.33v7a1.35,1.35 0,0 0,2.7 0v-10.31l0.384,1.18a1.334,1.334 0,0 0,2.6 -0.3A1.311,1.311 0,0 0,32.279 15.327Z"/>
    <path style="fill:#8776de" d="M25.181,5.707a2.725,2.725 0,0 0,1.891 0,2.938 2.938,0 1,0 -1.891,0Z"/>
    <path style="fill:#8776de" d="M17.713,22.341a2.458,2.458 0,0 1,-0.551 -0.062v6.239a1.314,1.314 0,0 0,0.389 0.078,1.35 1.35,0 0,0 1.35,-1.35v-5.241a2.393,2.393 0,0 1,-0.432 0.215A2.421,2.421 0,0 1,17.713 22.341Z"/>
    <path style="fill:#8776de" d="M23.327,10.325A2.246,2.246 0,0 0,21.183 8.77h-3.5a2.223,2.223 0,0 0,-1.622 0.726c-0.078,0.105 -0.162,0.205 -0.249,0.3a2.274,2.274 0,0 0,-0.134 0.262,3.341 3.341,0 0,1 2.085,2.126l2.265,6.963a2.408,2.408 0,0 1,0.111 0.961,2.434 2.434,0 0,1 -0.173,0.712v6.422a1.35,1.35 0,0 0,2.7 0v-10.31l0.384,1.18a1.334,1.334 0,0 0,2.6 -0.3,1.314 1.314,0 0,0 -0.061,-0.526Z"/>
    <path style="fill:#8776de" d="M18.489,7.671a2.938,2.938 0,0 0,3.884 -2.768,2.938 2.938,0 1,0 -3.884,2.768Z"/>
    <path style="fill:#8776de" d="M16.717,12.528a2.246,2.246 0,0 0,-2.14 -1.554h-3.5a2.223,2.223 0,0 0,-1.622 0.726c-0.078,0.105 -0.162,0.205 -0.249,0.3a2.278,2.278 0,0 0,-0.134 0.262,3.342 3.342,0 0,1 2.085,2.126l2.265,6.963a2.419,2.419 0,0 1,-0.061 1.673v6.422a1.35,1.35 0,0 0,2.7 0v-10.31l0.384,1.18a1.334,1.334 0,0 0,2.6 -0.3,1.314 1.314,0 0,0 -0.061,-0.526Z"/>
    <path style="fill:#8776de" d="M11.106,24.543a2.456,2.456 0,0 1,-0.551 -0.062v6.239a1.314,1.314 0,0 0,0.389 0.078,1.35 1.35,0 0,0 1.35,-1.35v-5.241a2.071,2.071 0,0 1,-1.188 0.336Z"/>
    <path style="fill:#8776de" d="M11.882,9.873a2.938,2.938 0,0 0,3.884 -2.768,2.938 2.938,0 1,0 -3.884,2.768Z"/>
    <path style="fill:#8776de" d="M10.11,14.73a2.246,2.246 0,0 0,-2.141 -1.554h-3.5a2.246,2.246 0,0 0,-2.14 1.554L0.066,21.692a1.316,1.316 0,0 0,-0.061 0.526,1.334 1.334,0 0,0 2.6,0.3l0.384,-1.18v10.31a1.35,1.35 0,0 0,2.7 0L5.689,23.582L6.754,23.582v8.068a1.35,1.35 0,0 0,2.7 0v-10.31l0.384,1.18a1.334,1.334 0,0 0,2.6 -0.3,1.313 1.313,0 0,0 -0.061,-0.526Z"/>
    <path style="fill:#8776de" d="M5.275,12.075a2.938,2.938 0,0 0,3.884 -2.768,2.938 2.938,0 1,0 -3.884,2.768Z"/>
	<polygon style="fill:#D4E1F4;" points="285.78,133.225 155.168,263.837 82.025,191.217 111.805,161.96 155.168,204.801 
		256.001,103.968 	"/>
</g>
<g>
</g>
<g>
</g>
<g>
</g>
<g>
</g>
<g>
</g>
<g>
</g>
<g>
</g>
<g>
</g>
<g>
</g>
<g>
</g>
<g>
</g>
<g>
</g>
<g>
</g>
<g>
</g>
<g>
</g>
</svg>




