<?xml version="1.0"?>
<svg xmlns="http://www.w3.org/2000/svg" xmlns:xlink="http://www.w3.org/1999/xlink" xmlns:svgjs="http://svgjs.com/svgjs" version="1.1" width="512" height="512" x="0" y="0" viewBox="0 0 31.441 31.441" style="enable-background:new 0 0 512 512" xml:space="preserve" class=""><g>
<g xmlns="http://www.w3.org/2000/svg">
	<g id="c5_telephone">
		<path d="M0,17.366l0.02,2.576l0.002,0.004c0.006,0.588,0.485,1.008,1.022,1.004l0.006,0.004l7.313-0.059    c0.565-0.004,1.007-0.463,1-1.019l-0.021-2.578L8.987,17.3c0.111-1.07,1.411-1.323,4-1.609l6.231-0.052    c1.5,0.146,2.953,0.415,3.058,1.58l-0.199,0.002l0.021,2.573l0.001,0.003c0.005,0.594,0.486,1.012,1.023,1.006l0.006,0.006    l7.312-0.062c0.565-0.001,1.005-0.462,1.001-1.019l-0.021-2.575l-0.264,0.002c-0.258-1.566-2.843-6.622-15.053-6.668    C3.429,10.439,0.462,15.685,0.31,17.364L0,17.366z" fill="#ffffff" data-original="#000000" style="" class=""/>
	</g>
	<g id="Capa_1_246_">
	</g>
</g>
<g xmlns="http://www.w3.org/2000/svg">
</g>
<g xmlns="http://www.w3.org/2000/svg">
</g>
<g xmlns="http://www.w3.org/2000/svg">
</g>
<g xmlns="http://www.w3.org/2000/svg">
</g>
<g xmlns="http://www.w3.org/2000/svg">
</g>
<g xmlns="http://www.w3.org/2000/svg">
</g>
<g xmlns="http://www.w3.org/2000/svg">
</g>
<g xmlns="http://www.w3.org/2000/svg">
</g>
<g xmlns="http://www.w3.org/2000/svg">
</g>
<g xmlns="http://www.w3.org/2000/svg">
</g>
<g xmlns="http://www.w3.org/2000/svg">
</g>
<g xmlns="http://www.w3.org/2000/svg">
</g>
<g xmlns="http://www.w3.org/2000/svg">
</g>
<g xmlns="http://www.w3.org/2000/svg">
</g>
<g xmlns="http://www.w3.org/2000/svg">
</g>
</g></svg>
