<?xml version="1.0"?>
<svg xmlns="http://www.w3.org/2000/svg" xmlns:xlink="http://www.w3.org/1999/xlink" xmlns:svgjs="http://svgjs.com/svgjs" version="1.1" width="512" height="512" x="0" y="0" viewBox="0 0 512 512" style="enable-background:new 0 0 512 512" xml:space="preserve" class=""><g>
<path xmlns="http://www.w3.org/2000/svg" style="" d="M441.6,62.933H70.4c-11.733,0-21.333,9.6-21.333,21.333v406.4C49.067,502.4,58.667,512,70.4,512  h371.2c11.733,0,21.333-9.6,21.333-21.333v-406.4C462.933,72.533,453.333,62.933,441.6,62.933z" fill="#98a2ad" data-original="#ffd15c" class=""/>
<path xmlns="http://www.w3.org/2000/svg" style="" d="M420.267,116.267c0-6.4-4.267-10.667-10.667-10.667H102.4c-6.4,0-10.667,4.267-10.667,10.667v342.4  c0,6.4,4.267,10.667,10.667,10.667h261.333l56.533-56.533L420.267,116.267L420.267,116.267z" fill="#f0faff" data-original="#f2f2f2" class=""/>
<path xmlns="http://www.w3.org/2000/svg" style="" d="M420.267,412.8H371.2c-4.267,0-6.4,3.2-6.4,6.4v50.133L420.267,412.8z" fill="#cdd6e0" data-original="#cdd6e0" class=""/>
<path xmlns="http://www.w3.org/2000/svg" style="" d="M342.4,40.533h-37.333C300.8,18.133,280.533,0,256,0s-44.8,18.133-49.067,40.533H169.6  c-10.667,0-20.267,8.533-20.267,20.267v42.667c0,11.733,9.6,21.333,21.333,21.333h170.667c11.733,0,21.333-9.6,21.333-21.333V60.8  C362.667,50.133,354.133,40.533,342.4,40.533z M256,62.933c-11.733,0-21.333-9.6-21.333-21.333s9.6-21.333,21.333-21.333  c11.733,0,21.333,9.6,21.333,21.333S267.733,62.933,256,62.933z" fill="#ffb651" data-original="#40596b" class=""/>
<g xmlns="http://www.w3.org/2000/svg">
	<rect x="116.267" y="309.333" style="" width="279.467" height="21.333" fill="#cdd5df" data-original="#cdd5df" class=""/>
	<rect x="116.267" y="360.533" style="" width="279.467" height="21.333" fill="#cdd5df" data-original="#cdd5df" class=""/>
	<rect x="116.267" y="410.667" style="" width="200.533" height="21.333" fill="#cdd5df" data-original="#cdd5df" class=""/>
</g>
<circle xmlns="http://www.w3.org/2000/svg" style="" cx="256" cy="218.667" r="60.8" fill="#95d6a4" data-original="#ff7058" class=""/>
<polygon xmlns="http://www.w3.org/2000/svg" style="" points="298.667,209.067 266.667,209.067 266.667,176 245.333,176 245.333,209.067 213.333,209.067   213.333,229.333 245.333,229.333 245.333,261.333 266.667,261.333 266.667,229.333 298.667,229.333 " fill="#ffffff" data-original="#ffffff" class=""/>
<g xmlns="http://www.w3.org/2000/svg">
</g>
<g xmlns="http://www.w3.org/2000/svg">
</g>
<g xmlns="http://www.w3.org/2000/svg">
</g>
<g xmlns="http://www.w3.org/2000/svg">
</g>
<g xmlns="http://www.w3.org/2000/svg">
</g>
<g xmlns="http://www.w3.org/2000/svg">
</g>
<g xmlns="http://www.w3.org/2000/svg">
</g>
<g xmlns="http://www.w3.org/2000/svg">
</g>
<g xmlns="http://www.w3.org/2000/svg">
</g>
<g xmlns="http://www.w3.org/2000/svg">
</g>
<g xmlns="http://www.w3.org/2000/svg">
</g>
<g xmlns="http://www.w3.org/2000/svg">
</g>
<g xmlns="http://www.w3.org/2000/svg">
</g>
<g xmlns="http://www.w3.org/2000/svg">
</g>
<g xmlns="http://www.w3.org/2000/svg">
</g>
</g></svg>
