<?xml version="1.0"?>
<svg xmlns="http://www.w3.org/2000/svg" xmlns:xlink="http://www.w3.org/1999/xlink" xmlns:svgjs="http://svgjs.com/svgjs" version="1.1" width="512" height="512" x="0" y="0" viewBox="0 0 512.366 512.366" style="enable-background:new 0 0 512 512" xml:space="preserve" class=""><g>
<path xmlns="http://www.w3.org/2000/svg" style="" d="M248.356,442.369L248.356,442.369c-8.533-7.467-11.733-19.2-10.667-29.867l0,0  c2.133-10.667-2.133-22.4-10.667-29.867s-11.733-18.133-10.667-29.867l0,0c2.133-10.667-2.133-22.4-10.667-29.867  c-7.467-6.4-10.667-16-10.667-26.667l-86.4,29.867l54.4,160l91.733-30.933C255.823,450.902,252.623,446.636,248.356,442.369z" fill="#95d6a4" data-original="#f7b64c" class=""/>
<path xmlns="http://www.w3.org/2000/svg" style="" d="M278.223,458.369L278.223,458.369c-3.2-8.533-11.733-12.8-20.267-9.6l-92.8,32  c-8.533,3.2-12.8,11.733-9.6,20.267c3.2,8.533,11.733,12.8,20.267,9.6l92.8-32C277.156,476.502,281.423,466.902,278.223,458.369z" fill="#95d6a4" data-original="#ffd15c" class=""/>
<g xmlns="http://www.w3.org/2000/svg">
	<path style="" d="M445.69,130.902c-5.333,1.067-10.667,2.133-14.933,4.267l17.067,108.8   c5.333,1.067,10.667,1.067,16,0c30.933-5.333,52.267-34.133,48-65.067C506.49,146.902,476.623,125.569,445.69,130.902z" fill="#818f97" data-original="#344a5e" class=""/>
	<path style="" d="M91.556,294.102l8.533,52.267c1.067,6.4,6.4,9.6,12.8,9.6l114.133-18.133   c6.4-1.067,9.6-6.4,9.6-12.8l-8.533-52.267c-1.067-6.4-6.4-9.6-12.8-9.6l-115.2,19.2C94.756,282.369,90.49,288.769,91.556,294.102z   " fill="#818f97" data-original="#344a5e" class=""/>
	<path style="" d="M43.556,187.436c-28.8,9.6-48,39.467-42.667,70.4s32,53.333,61.867,54.4L43.556,187.436z" fill="#818f97" data-original="#344a5e" class=""/>
</g>
<path xmlns="http://www.w3.org/2000/svg" style="" d="M137.423,150.102l-87.467,13.867c-12.8,2.133-21.333,13.867-19.2,26.667l19.2,123.733  c2.133,12.8,13.867,21.333,26.667,19.2l87.467-13.867c93.867-14.933,190.933,0,276.267,42.667L387.023,24.236  C318.756,91.436,232.356,135.169,137.423,150.102z" fill="#e8eae9" data-original="#e8eae9" class=""/>
<path xmlns="http://www.w3.org/2000/svg" style="" d="M462.756,381.569c-11.733,2.133-23.467-6.4-24.533-18.133L384.89,25.302  c-2.133-11.733,6.4-23.467,18.133-24.533c11.733-1.067,23.467,6.4,24.533,18.133l53.333,338.133  C483.023,367.702,475.556,379.436,462.756,381.569z" fill="#95d6a4" data-original="#ffd15c" class=""/>
<g xmlns="http://www.w3.org/2000/svg">
	<path style="" d="M171.556,186.369L171.556,186.369c-1.067-7.467-8.533-12.8-16-11.733l-78.933,12.8   c-7.467,1.067-12.8,8.533-11.733,16l0,0c1.067,7.467,8.533,12.8,16,11.733l78.933-12.8   C167.29,200.236,172.623,193.836,171.556,186.369z" fill="#adb3ba" data-original="#adb3ba" class=""/>
	<path style="" d="M177.956,230.102L177.956,230.102c-1.067-7.467-8.533-12.8-16-11.733l-78.933,12.8   c-7.467,1.067-12.8,8.533-11.733,16l0,0c1.067,7.467,8.533,12.8,16,11.733l78.933-12.8   C174.756,245.036,180.09,237.569,177.956,230.102z" fill="#adb3ba" data-original="#adb3ba" class=""/>
	<path style="" d="M185.423,274.902L185.423,274.902c-1.067-7.467-8.533-12.8-16-11.733l-78.933,12.8   c-7.467,1.067-12.8,8.533-11.733,16l0,0c1.067,7.467,8.533,12.8,16,11.733l78.933-12.8   C181.156,288.769,186.49,282.369,185.423,274.902z" fill="#adb3ba" data-original="#adb3ba" class=""/>
</g>
<g xmlns="http://www.w3.org/2000/svg">
</g>
<g xmlns="http://www.w3.org/2000/svg">
</g>
<g xmlns="http://www.w3.org/2000/svg">
</g>
<g xmlns="http://www.w3.org/2000/svg">
</g>
<g xmlns="http://www.w3.org/2000/svg">
</g>
<g xmlns="http://www.w3.org/2000/svg">
</g>
<g xmlns="http://www.w3.org/2000/svg">
</g>
<g xmlns="http://www.w3.org/2000/svg">
</g>
<g xmlns="http://www.w3.org/2000/svg">
</g>
<g xmlns="http://www.w3.org/2000/svg">
</g>
<g xmlns="http://www.w3.org/2000/svg">
</g>
<g xmlns="http://www.w3.org/2000/svg">
</g>
<g xmlns="http://www.w3.org/2000/svg">
</g>
<g xmlns="http://www.w3.org/2000/svg">
</g>
<g xmlns="http://www.w3.org/2000/svg">
</g>
</g></svg>
